#!OML:ASF E:\emotionWalksFemale\Project 1\Capture day 1\Session 1\Female1.ASF
:FULLY-SPECIFIED
:DEGREES
290
root 8.94873 15.5707 17.4897 180.907 -1.27277 -179.315
lowerback 8.33268 1.26745 0.973158
upperback -4.16335 1.76928 0.0583391
thorax -9.07492 0.77836 -0.764726
lowerneck -9.64568 -3.03081 -7.23889
upperneck 9.69114 -3.86909 6.50563
head 4.75094 -1.8057 2.92331
rclavicle 1.87498e-014 2.86995e-015
rhumerus -41.9422 9.01876 -90.0191
rradius 29.8486
rwrist 27.8955
rhand -8.22736 -51.4168
rfingers 7.12502
rthumb 17.6901 -80.6321
lclavicle 1.87498e-014 2.86995e-015
lhumerus -41.2481 2.3929 83.863
lradius 29.2551
lwrist -24.124
lhand -2.30503 -29.7831
lfingers 7.12502
lthumb 23.3808 -1.18331
rfemur -2.09963 15.4873 28.2422
rtibia 15.4335
rfoot -14.0691 -30.4558
rtoes 5.07747
lfemur -6.68262 -18.9184 -24.6064
ltibia 23.1005
lfoot -20.6584 17.789
ltoes -28.3909
291
root 8.94605 15.5762 17.4944 181.02 -1.30194 -179.413
lowerback 8.17365 1.24831 0.950673
upperback -4.13127 1.73655 0.0325103
thorax -8.94671 0.764463 -0.769707
lowerneck -9.5829 -3.01775 -7.21517
upperneck 9.58789 -3.84525 6.44871
head 4.70551 -1.79653 2.90401
rclavicle 7.11519e-016 -2.48481e-017
rhumerus -41.8493 8.83189 -90.0047
rradius 29.8331
rwrist 28.0311
rhand -8.57278 -51.9856
rfingers 7.12502
rthumb 17.3576 -81.2305
lclavicle 7.11519e-016 -2.48481e-017
lhumerus -41.133 2.42401 83.8861
lradius 29.1808
lwrist -24.2818
lhand -3.0161 -30.2197
lfingers 7.12502
lthumb 22.6985 -1.53469
rfemur -2.04968 15.6991 28.0907
rtibia 15.1678
rfoot -14.4391 -30.6021
rtoes 5.79422
lfemur -6.70392 -19.1609 -24.6842
ltibia 22.8716
lfoot -20.5136 18.0339
ltoes -28.5171
292
root 8.94326 15.5838 17.4984 181.121 -1.35802 -179.452
lowerback 8.19718 1.21918 0.96453
upperback -4.18687 1.69823 0.0415369
thorax -9.02175 0.743371 -0.763171
lowerneck -9.479 -3.00143 -7.20165
upperneck 9.54917 -3.8185 6.35381
head 4.6723 -1.78994 2.87515
rclavicle -1.24116e-014 -1.6524e-015
rhumerus -41.8971 8.61855 -89.9542
rradius 29.8237
rwrist 28.3399
rhand -8.86359 -52.1131
rfingers 7.12502
rthumb 17.0777 -81.3824
lclavicle -1.24116e-014 -1.6524e-015
lhumerus -41.135 2.40634 83.9475
lradius 29.114
lwrist -24.3514
lhand -3.6595 -30.5577
lfingers 7.12502
lthumb 22.0809 -1.79842
rfemur -2.03374 15.9952 28.0068
rtibia 14.9551
rfoot -14.7275 -30.9966
rtoes 5.8929
lfemur -6.69909 -19.4377 -24.6966
ltibia 22.6475
lfoot -20.5129 18.2204
ltoes -28.4629
293
root 8.93929 15.5897 17.4993 181.203 -1.31206 -179.46
lowerback 8.23688 1.24616 0.979511
upperback -4.27196 1.73626 0.0721017
thorax -9.13789 0.758917 -0.747178
lowerneck -9.34335 -3.01272 -7.12945
upperneck 9.5544 -3.83572 6.19699
head 4.64803 -1.80756 2.81445
rclavicle -7.07239e-015 0
rhumerus -41.9264 8.49471 -89.8961
rradius 29.7854
rwrist 28.6852
rhand -8.52763 -52.2078
rfingers 7.12502
rthumb 17.4011 -81.4489
lclavicle -7.07239e-015 0
lhumerus -41.1845 2.39851 84.06
lradius 29.0825
lwrist -24.3299
lhand -3.80593 -30.4837
lfingers 7.12502
lthumb 21.9403 -1.70788
rfemur -1.9679 16.3163 27.9605
rtibia 14.7018
rfoot -15.1172 -31.1593
rtoes 6.66561
lfemur -6.65523 -19.6813 -24.7063
ltibia 22.444
lfoot -20.3701 18.5821
ltoes -29.7631
294
root 8.93664 15.5938 17.503 181.245 -1.3299 -179.462
lowerback 8.28504 1.24865 0.978718
upperback -4.32563 1.74066 0.099413
thorax -9.22581 0.760019 -0.7203
lowerneck -9.35814 -3.00211 -7.00984
upperneck 9.72273 -3.83184 6.06139
head 4.69695 -1.81064 2.75266
rclavicle -2.41244e-014 -6.70898e-015
rhumerus -41.9872 8.59139 -90.0188
rradius 29.8641
rwrist 28.6834
rhand -8.11317 -52.2799
rfingers 7.12502
rthumb 17.7999 -81.4852
lclavicle -2.41244e-014 -6.70898e-015
lhumerus -41.1684 2.56869 84.0988
lradius 29.0092
lwrist -24.3569
lhand -3.83828 -30.3603
lfingers 7.12502
lthumb 21.9093 -1.5808
rfemur -1.8366 16.7745 27.9688
rtibia 14.4113
rfoot -15.4097 -31.4637
rtoes 7.56859
lfemur -6.62657 -19.9212 -24.7132
ltibia 22.2802
lfoot -20.1658 18.8056
ltoes -30.552
295
root 8.93537 15.5996 17.5079 181.376 -1.42608 -179.456
lowerback 8.17124 1.21603 1.03396
upperback -4.34601 1.69958 0.0932743
thorax -9.17986 0.736027 -0.748553
lowerneck -9.47811 -2.98521 -6.93787
upperneck 9.93005 -3.82131 6.03831
head 4.77814 -1.80411 2.73319
rclavicle -9.65969e-016 4.67144e-015
rhumerus -42.1149 8.79619 -90.3134
rradius 30.0952
rwrist 28.406
rhand -8.25338 -52.1727
rfingers 7.12502
rthumb 17.665 -81.3902
lclavicle -9.65969e-016 4.67144e-015
lhumerus -41.0797 2.77535 84.0699
lradius 28.9886
lwrist -24.3016
lhand -3.8339 -30.2437
lfingers 7.12502
lthumb 21.9135 -1.46475
rfemur -1.81306 17.4192 27.9762
rtibia 14.1315
rfoot -15.4577 -32.1816
rtoes 7.69524
lfemur -6.73105 -20.1914 -24.6636
ltibia 22.1577
lfoot -20.1265 18.8421
ltoes -30.0927
296
root 8.93323 15.6034 17.5092 181.535 -1.4227 -179.474
lowerback 7.97204 1.2313 1.08733
upperback -4.35368 1.72021 0.0784969
thorax -9.06836 0.742478 -0.79236
lowerneck -9.60109 -3.00041 -6.92845
upperneck 10.1116 -3.84429 6.02638
head 4.85571 -1.81508 2.72489
rclavicle -3.26442e-015 -1.49089e-015
rhumerus -42.2588 9.01059 -90.5971
rradius 30.3254
rwrist 28.076
rhand -8.46373 -52.1235
rfingers 7.12502
rthumb 17.4626 -81.3591
lclavicle -3.26442e-015 -1.49089e-015
lhumerus -40.9863 2.86098 84.1074
lradius 29.0237
lwrist -24.1415
lhand -3.73966 -30.1881
lfingers 7.12502
lthumb 22.0039 -1.41977
rfemur -1.82508 17.9312 27.9179
rtibia 13.8303
rfoot -15.3394 -32.7205
rtoes 7.35643
lfemur -6.85446 -20.5153 -24.6474
ltibia 22.0812
lfoot -20.1872 19.1141
ltoes -29.6432
297
root 8.93156 15.6052 17.51 181.628 -1.37974 -179.419
lowerback 7.95179 1.24838 1.15548
upperback -4.42054 1.75136 0.123815
thorax -9.12833 0.752433 -0.787538
lowerneck -9.58145 -3.02415 -6.94958
upperneck 10.2766 -3.87951 5.97294
head 4.90494 -1.83876 2.70908
rclavicle -1.717e-014 -8.99501e-015
rhumerus -42.4891 9.31637 -90.8799
rradius 30.475
rwrist 27.6612
rhand -8.35974 -51.8121
rfingers 7.12502
rthumb 17.5627 -81.0388
lclavicle -1.717e-014 -8.99501e-015
lhumerus -41.0791 2.93211 84.1894
lradius 29.1002
lwrist -24.1148
lhand -3.95711 -30.4415
lfingers 7.12502
lthumb 21.7951 -1.64874
rfemur -1.76524 18.3011 27.9692
rtibia 13.5242
rfoot -15.1365 -33.0721
rtoes 6.90466
lfemur -6.92171 -20.859 -24.5779
ltibia 22.0417
lfoot -20.2232 19.4889
ltoes -29.2334
298
root 8.93095 15.6066 17.5101 181.692 -1.37583 -179.291
lowerback 8.00206 1.24094 1.28569
upperback -4.51854 1.75893 0.188797
thorax -9.2634 0.746147 -0.795085
lowerneck -9.39366 -3.04235 -6.98108
upperneck 10.3356 -3.92179 5.98392
head 4.89517 -1.86564 2.71637
rclavicle 1.02001e-014 1.98785e-016
rhumerus -42.7864 9.73315 -91.288
rradius 30.6494
rwrist 27.0227
rhand -8.01398 -51.6775
rfingers 7.12502
rthumb 17.8954 -80.8742
lclavicle 1.02001e-014 1.98785e-016
lhumerus -41.2979 2.87047 84.3353
lradius 29.2102
lwrist -23.9576
lhand -4.31362 -30.5865
lfingers 7.12502
lthumb 21.4528 -1.75428
rfemur -1.6721 18.6487 28.1215
rtibia 13.2486
rfoot -15.1089 -33.3998
rtoes 6.89953
lfemur -6.96945 -21.1681 -24.432
ltibia 22.0237
lfoot -20.2322 19.7504
ltoes -29.1957
